<svg xmlns="http://www.w3.org/2000/svg" viewBox="0 0 780 820" font-family="sans-serif">
<defs><marker id="arr" viewBox="0 0 10 10" refX="9" refY="5" markerWidth="7" markerHeight="7" orient="auto-start-reverse"><path d="M0,0 L10,5 L0,10 z" fill="#94a3b8"/></marker><marker id="arrdim" viewBox="0 0 10 10" refX="9" refY="5" markerWidth="7" markerHeight="7" orient="auto-start-reverse"><path d="M0,0 L10,5 L0,10 z" fill="#cbd5e1"/></marker><marker id="arrhot" viewBox="0 0 10 10" refX="9" refY="5" markerWidth="7" markerHeight="7" orient="auto-start-reverse"><path d="M0,0 L10,5 L0,10 z" fill="#dc2626"/></marker></defs>
<rect width="780" height="820" fill="#ffffff"/>
<text x="20" y="24" font-size="16" font-weight="700" fill="#0f172a">EER — the 16-block empathy architecture</text>
<text x="20" y="794" font-size="10" fill="#64748b">Each block reads upstream results off the blackboard and writes its own; the engine runs them in</text>
<text x="20" y="807" font-size="10" fill="#64748b">topological order. Wiring read from graphs/default.json.</text>
<path d="M380.0,81.0 L380.0,111.0" stroke="#94a3b8" stroke-width="1.4" fill="none" opacity="0.9" marker-end="url(#arr)"/>
<path d="M380.0,149.0 L380.0,205.0" stroke="#94a3b8" stroke-width="1.4" fill="none" opacity="0.9" marker-end="url(#arr)"/>
<path d="M333.5,149.0 L196.5,205.0" stroke="#94a3b8" stroke-width="1.4" fill="none" opacity="0.9" marker-end="url(#arr)"/>
<path d="M380.0,243.0 L380.0,293.0" stroke="#94a3b8" stroke-width="1.4" fill="none" opacity="0.9" marker-end="url(#arr)"/>
<path d="M199.7,243.0 L330.3,293.0" stroke="#94a3b8" stroke-width="1.4" fill="none" opacity="0.9" marker-end="url(#arr)"/>
<path d="M380.0,331.0 L380.0,381.0" stroke="#94a3b8" stroke-width="1.4" fill="none" opacity="0.9" marker-end="url(#arr)"/>
<path d="M380.0,419.0 L380.0,469.0" stroke="#94a3b8" stroke-width="1.4" fill="none" opacity="0.9" marker-end="url(#arr)"/>
<path d="M380.0,507.0 L380.0,555.0" stroke="#94a3b8" stroke-width="1.4" fill="none" opacity="0.9" marker-end="url(#arr)"/>
<path d="M380.0,593.0 L380.0,733.0" stroke="#94a3b8" stroke-width="1.4" fill="none" opacity="0.9" marker-end="url(#arr)"/>
<path d="M399.4,243.0 L620.6,459.0" stroke="#94a3b8" stroke-width="1.4" fill="none" opacity="0.9" marker-end="url(#arr)"/>
<path d="M409.8,331.0 L610.2,459.0" stroke="#94a3b8" stroke-width="1.4" fill="none" opacity="0.9" marker-end="url(#arr)"/>
<path d="M436.0,485.8 L584.0,480.2" stroke="#94a3b8" stroke-width="1.4" fill="none" opacity="0.9" marker-end="url(#arr)"/>
<path d="M324.0,76.6 L176.0,115.4" stroke="#94a3b8" stroke-width="1.4" fill="none" opacity="0.9" marker-end="url(#arr)"/>
<path d="M324.0,130.0 L176.0,130.0" stroke="#94a3b8" stroke-width="1.4" fill="none" opacity="0.9" marker-end="url(#arr)"/>
<path d="M333.4,243.0 L166.6,311.0" stroke="#94a3b8" stroke-width="1.4" fill="none" opacity="0.9" marker-end="url(#arr)"/>
<path d="M144.6,243.0 L125.4,311.0" stroke="#94a3b8" stroke-width="1.4" fill="none" opacity="0.9" marker-end="url(#arr)"/>
<path d="M324.0,315.9 L176.0,326.1" stroke="#94a3b8" stroke-width="1.4" fill="none" opacity="0.9" marker-end="url(#arr)"/>
<path d="M436.0,326.0 L564.0,358.0" stroke="#94a3b8" stroke-width="1.4" fill="none" opacity="0.9" marker-end="url(#arr)"/>
<path d="M419.3,469.0 L580.7,391.0" stroke="#94a3b8" stroke-width="1.4" fill="none" opacity="0.9" marker-end="url(#arr)"/>
<path d="M436.0,507.0 L554.0,547.0" stroke="#94a3b8" stroke-width="1.4" fill="none" opacity="0.9" marker-end="url(#arr)"/>
<path d="M586.5,585.0 L403.5,733.0" stroke="#94a3b8" stroke-width="1.4" fill="none" opacity="0.9" marker-end="url(#arr)"/>
<path d="M147.7,243.0 L122.3,451.0" stroke="#94a3b8" stroke-width="1.4" fill="none" opacity="0.9" marker-end="url(#arr)"/>
<path d="M120.0,349.0 L120.0,451.0" stroke="#94a3b8" stroke-width="1.4" fill="none" opacity="0.9" marker-end="url(#arr)"/>
<path d="M603.9,391.0 L396.1,637.0" stroke="#94a3b8" stroke-width="1.4" fill="none" opacity="0.9" marker-end="url(#arr)"/>
<path d="M146.6,489.0 L353.4,637.0" stroke="#94a3b8" stroke-width="1.4" fill="none" opacity="0.9" marker-end="url(#arr)"/>
<path d="M612.2,497.0 L407.8,637.0" stroke="#94a3b8" stroke-width="1.4" fill="none" opacity="0.9" marker-end="url(#arr)"/>
<path d="M380.0,675.0 L380.0,733.0" stroke="#94a3b8" stroke-width="1.4" fill="none" opacity="0.9" marker-end="url(#arr)"/>
<rect x="324" y="43" rx="7" width="112" height="38" fill="#dbeafe" stroke="#1d4ed8" stroke-width="2"/>
<text x="380" y="59" text-anchor="middle" font-size="12" font-weight="700" fill="#0f172a" font-family="monospace">INPUT</text>
<text x="380" y="73" text-anchor="middle" font-size="7.5" fill="#0f172a" font-family="sans-serif">Input Capture</text>
<rect x="64" y="111" rx="7" width="112" height="38" fill="#ccfbf1" stroke="#0d9488" stroke-width="2"/>
<text x="120" y="127" text-anchor="middle" font-size="12" font-weight="700" fill="#0f172a" font-family="monospace">CTXT</text>
<text x="120" y="141" text-anchor="middle" font-size="7.5" fill="#0f172a" font-family="sans-serif">Context Field</text>
<rect x="324" y="111" rx="7" width="112" height="38" fill="#dbeafe" stroke="#1d4ed8" stroke-width="2"/>
<text x="380" y="127" text-anchor="middle" font-size="12" font-weight="700" fill="#0f172a" font-family="monospace">LIT</text>
<text x="380" y="141" text-anchor="middle" font-size="7.5" fill="#0f172a" font-family="sans-serif">Literal Observati…</text>
<rect x="94" y="205" rx="7" width="112" height="38" fill="#ccfbf1" stroke="#0d9488" stroke-width="2"/>
<text x="150" y="221" text-anchor="middle" font-size="12" font-weight="700" fill="#0f172a" font-family="monospace">BSTK</text>
<text x="150" y="235" text-anchor="middle" font-size="7.5" fill="#0f172a" font-family="sans-serif">Belief Stack</text>
<rect x="324" y="205" rx="7" width="112" height="38" fill="#ccfbf1" stroke="#0d9488" stroke-width="2"/>
<text x="380" y="221" text-anchor="middle" font-size="12" font-weight="700" fill="#0f172a" font-family="monospace">MECH</text>
<text x="380" y="235" text-anchor="middle" font-size="7.5" fill="#0f172a" font-family="sans-serif">Motivation-Emotio…</text>
<rect x="324" y="293" rx="7" width="112" height="38" fill="#dcfce7" stroke="#16a34a" stroke-width="2"/>
<text x="380" y="309" text-anchor="middle" font-size="12" font-weight="700" fill="#0f172a" font-family="monospace">EMPA</text>
<text x="380" y="323" text-anchor="middle" font-size="7.5" fill="#0f172a" font-family="sans-serif">Empathy Block</text>
<rect x="64" y="311" rx="7" width="112" height="38" fill="#ede9fe" stroke="#7c3aed" stroke-width="2"/>
<text x="120" y="327" text-anchor="middle" font-size="12" font-weight="700" fill="#0f172a" font-family="monospace">REFL</text>
<text x="120" y="341" text-anchor="middle" font-size="7.5" fill="#0f172a" font-family="sans-serif">Reflection Kernel</text>
<rect x="324" y="381" rx="7" width="112" height="38" fill="#dcfce7" stroke="#16a34a" stroke-width="2"/>
<text x="380" y="397" text-anchor="middle" font-size="12" font-weight="700" fill="#0f172a" font-family="monospace">UNLK</text>
<text x="380" y="411" text-anchor="middle" font-size="7.5" fill="#0f172a" font-family="sans-serif">Emotional Unlock …</text>
<rect x="564" y="353" rx="7" width="112" height="38" fill="#fef3c7" stroke="#d97706" stroke-width="2"/>
<text x="620" y="369" text-anchor="middle" font-size="12" font-weight="700" fill="#0f172a" font-family="monospace">FUSN</text>
<text x="620" y="383" text-anchor="middle" font-size="7.5" fill="#0f172a" font-family="sans-serif">Fusion Language E…</text>
<rect x="64" y="451" rx="7" width="112" height="38" fill="#ede9fe" stroke="#7c3aed" stroke-width="2"/>
<text x="120" y="467" text-anchor="middle" font-size="12" font-weight="700" fill="#0f172a" font-family="monospace">QTX</text>
<text x="120" y="481" text-anchor="middle" font-size="7.5" fill="#0f172a" font-family="sans-serif">Quantum Therapist…</text>
<rect x="324" y="469" rx="7" width="112" height="38" fill="#dbeafe" stroke="#1d4ed8" stroke-width="2"/>
<text x="380" y="485" text-anchor="middle" font-size="12" font-weight="700" fill="#0f172a" font-family="monospace">RESP</text>
<text x="380" y="499" text-anchor="middle" font-size="7.5" fill="#0f172a" font-family="sans-serif">Living Presence R…</text>
<rect x="584" y="459" rx="7" width="112" height="38" fill="#fef3c7" stroke="#d97706" stroke-width="2"/>
<text x="640" y="475" text-anchor="middle" font-size="12" font-weight="700" fill="#0f172a" font-family="monospace">RESO</text>
<text x="640" y="489" text-anchor="middle" font-size="7.5" fill="#0f172a" font-family="sans-serif">Resonance Layers</text>
<rect x="554" y="547" rx="7" width="112" height="38" fill="#fef3c7" stroke="#d97706" stroke-width="2"/>
<text x="610" y="563" text-anchor="middle" font-size="12" font-weight="700" fill="#0f172a" font-family="monospace">PRES</text>
<text x="610" y="577" text-anchor="middle" font-size="7.5" fill="#0f172a" font-family="sans-serif">Presence Lens</text>
<rect x="324" y="555" rx="7" width="112" height="38" fill="#dbeafe" stroke="#1d4ed8" stroke-width="2"/>
<text x="380" y="571" text-anchor="middle" font-size="12" font-weight="700" fill="#0f172a" font-family="monospace">LOOP</text>
<text x="380" y="585" text-anchor="middle" font-size="7.5" fill="#0f172a" font-family="sans-serif">Refinement Engine</text>
<rect x="324" y="637" rx="7" width="112" height="38" fill="#e0e7ff" stroke="#4338ca" stroke-width="2"/>
<text x="380" y="653" text-anchor="middle" font-size="12" font-weight="700" fill="#0f172a" font-family="monospace">DTFX</text>
<text x="380" y="667" text-anchor="middle" font-size="7.5" fill="#0f172a" font-family="sans-serif">Deep Trust Fusion…</text>
<rect x="324" y="733" rx="7" width="112" height="38" fill="#e0e7ff" stroke="#4338ca" stroke-width="2"/>
<text x="380" y="749" text-anchor="middle" font-size="12" font-weight="700" fill="#0f172a" font-family="monospace">FINAL</text>
<text x="380" y="763" text-anchor="middle" font-size="7.5" fill="#0f172a" font-family="sans-serif">Final Expression</text>
<text x="20" y="780" font-size="11" font-weight="700" fill="#334155" font-family="sans-serif">Stages</text>
<rect x="90" y="770" width="13" height="13" rx="3" fill="#dbeafe" stroke="#1d4ed8" stroke-width="2"/>
<text x="108" y="780" font-size="10" fill="#475569" font-family="sans-serif">Intake</text>
<rect x="152.0" y="770" width="13" height="13" rx="3" fill="#ccfbf1" stroke="#0d9488" stroke-width="2"/>
<text x="170.0" y="780" font-size="10" fill="#475569" font-family="sans-serif">Read the person</text>
<rect x="268.0" y="770" width="13" height="13" rx="3" fill="#dcfce7" stroke="#16a34a" stroke-width="2"/>
<text x="286.0" y="780" font-size="10" fill="#475569" font-family="sans-serif">Recognize</text>
<rect x="348.0" y="770" width="13" height="13" rx="3" fill="#ede9fe" stroke="#7c3aed" stroke-width="2"/>
<text x="366.0" y="780" font-size="10" fill="#475569" font-family="sans-serif">Meta / depth</text>
<rect x="446.0" y="770" width="13" height="13" rx="3" fill="#dbeafe" stroke="#1d4ed8" stroke-width="2"/>
<text x="464.0" y="780" font-size="10" fill="#475569" font-family="sans-serif">Respond</text>
<rect x="514.0" y="770" width="13" height="13" rx="3" fill="#fef3c7" stroke="#d97706" stroke-width="2"/>
<text x="532.0" y="780" font-size="10" fill="#475569" font-family="sans-serif">Attune</text>
<rect x="576.0" y="770" width="13" height="13" rx="3" fill="#e0e7ff" stroke="#4338ca" stroke-width="2"/>
<text x="594.0" y="780" font-size="10" fill="#475569" font-family="sans-serif">Synthesize</text>
</svg>